<svg xmlns="http://www.w3.org/2000/svg" xmlns:xlink="http://www.w3.org/1999/xlink" width="32" height="960" viewBox="0 0 32 960"><svg width="32" height="32" viewBox="0 0 32 32" id="art_palette" y="0"><path fill="#2D2220" d="M15.63 3.98c-.4 0-.63.02-.63.02S4 5 4 17c0 0 0 7 4 7 3.5 0 3.94-5.36 6-5.36.3 0 .62.11 1 .36 3 2-7 5-4 8 .79.79 2.36 1.24 4.23 1.24C20.44 28.24 28 24.82 28 16 28 4.73 18.24 3.98 15.63 3.98zm-.4 23.26c-1.59 0-2.94-.36-3.52-.95-.29-.29-.28-.46-.28-.51.05-.69 1.44-1.78 2.46-2.58 1.46-1.15 2.73-2.13 2.68-3.42-.02-.44-.21-1.07-1.01-1.61-.53-.35-1.05-.53-1.56-.53-1.47 0-2.25 1.351-3.02 2.65C10.03 21.93 9.31 23 8 23c-2.91 0-3-5.94-3-6C5 6.08 14.68 5.04 15.08 5c.01 0 .21-.02.55-.02C18.3 4.98 27 5.78 27 16c0 8.25-7.04 11.24-11.77 11.24z"></path><path fill="#FFD561" d="M25.07 9.16c-2.67-1.94-5.97-2.18-7.44-2.18-.34 0-.54.02-.55.02C16.68 7.04 7 8.08 7 19c0 .04.03 2.25.72 3.98.09.01.18.02.28.02 1.31 0 2.03-1.07 2.98-2.71.77-1.3 1.55-2.65 3.02-2.65.51 0 1.03.181 1.56.53.76.521.97 1.11 1 1.55.01.021.01.04.01.061.05 1.29-1.22 2.27-2.68 3.42-1.02.8-2.41 1.89-2.46 2.58 0 .05-.01.22.28.51.39.4 1.12.69 2.05.83.45.08.95.12 1.47.12C19.96 27.24 27 24.25 27 16c0-3.04-.77-5.25-1.93-6.84zM13 13c-1.1 0-2-.9-2-2s.9-2 2-2 2 .9 2 2-.9 2-2 2zm8 9c-1.1 0-2-.9-2-2s.9-2 2-2 2 .9 2 2-.9 2-2 2zm0-8c-1.1 0-2-.9-2-2s.9-2 2-2 2 .9 2 2-.9 2-2 2z"></path><path fill="#2D2220" d="M8 15c-1.1 0-2 .9-2 2s.9 2 2 2 2-.9 2-2-.9-2-2-2zm0 3c-.55 0-1-.45-1-1s.45-1 1-1 1 .45 1 1-.45 1-1 1z"></path><circle fill="#31CFFF" cx="8" cy="17" r="1"></circle><path fill="#2D2220" d="M13 8c-1.66 0-3 1.34-3 3s1.34 3 3 3 3-1.34 3-3-1.34-3-3-3zm0 5c-1.1 0-2-.9-2-2s.9-2 2-2 2 .9 2 2-.9 2-2 2z"></path><path fill="#E371FF" d="M15 11c0 1.1-.9 2-2 2-.29 0-.57-.06-.82-.18-.12-.25-.18-.53-.18-.82 0-1.1.9-2 2-2 .29 0 .57.06.82.18.12.25.18.53.18.82z"></path><path fill="#2D2220" d="M21 9c-1.66 0-3 1.34-3 3s1.34 3 3 3 3-1.34 3-3-1.34-3-3-3zm0 5c-1.1 0-2-.9-2-2s.9-2 2-2 2 .9 2 2-.9 2-2 2z"></path><path fill="#FF6B43" d="M23 12c0 1.1-.9 2-2 2-.29 0-.57-.06-.82-.18-.12-.25-.18-.53-.18-.82 0-1.1.9-2 2-2 .29 0 .57.06.82.18.12.25.18.53.18.82z"></path><path fill="#2D2220" d="M21 17c-1.66 0-3 1.34-3 3s1.34 3 3 3 3-1.34 3-3-1.34-3-3-3zm0 5c-1.1 0-2-.9-2-2s.9-2 2-2 2 .9 2 2-.9 2-2 2z"></path><path fill="#FFA28D" d="M23 20c0 1.1-.9 2-2 2-.29 0-.57-.06-.82-.18-.12-.25-.18-.53-.18-.82 0-1.1.9-2 2-2 .29 0 .57.06.82.18.12.25.18.53.18.82z"></path></svg><svg width="32" height="32" viewBox="0 0 32 32" id="book" y="32"><path fill="#E371FF" d="M8 7l2 1v21H8z"></path><path fill="#31CFFF" d="M13 10h12v20H13z"></path><path fill="#2D2220" d="M19 5.5c0 .28-.22.5-.5.5h-6c-.28 0-.5-.22-.5-.5s.22-.5.5-.5h6c.28 0 .5.22.5.5z"></path><path fill="#2D2220" d="M25 3h.5c.28 0 .5-.22.5-.5s-.22-.5-.5-.5H9C7.34 2 6 3.34 6 5v22c0 1.66 1.34 3 3 3h16c1 0 1-1 1-1V7h-1V3zM10.5 4H7.27c.35-.6.99-1 1.73-1h15v1h-3.5c-.28 0-.5.22-.5.5s.22.5.5.5H24v2H9c-1.1 0-2-.9-2-2h3.5c.28 0 .5-.22.5-.5s-.22-.5-.5-.5zM25 28c0 1-1 1-1 1H11v-2.5c0-.28-.22-.5-.5-.5s-.5.22-.5.5V29H9c-1.1 0-2-.9-2-2V7.22C7.53 7.7 8.23 8 9 8h1v15.5c0 .28.22.5.5.5s.5-.22.5-.5V8h14v20z"></path></svg><svg width="32" height="32" viewBox="0 0 32 32" id="brush" y="64"><path fill="#31CFFF" d="M21 28a1 1 0 0 0-1-1H9c-.552 0-4 .447-4 1H4c0 .553-1.552 1-1 1h17a1 1 0 0 0 1-1z"></path><path fill="#BCBCBC" d="M17.38 18.09c-2.09 1.49-4.16 2.97-5.48 3.91-.06.04-.12.09-.18.13-.08-.18-.19-.35-.3-.52a2.785 2.785 0 0 0-.42-.5c.93-1.32 2.42-3.4 3.91-5.49l2.47 2.47z"></path><path fill="#2D2220" d="M28.48 3.53c-1-1-1.95-.33-2.261-.11-.09.06-10.85 7.41-13.07 10.52L8.8 20.02a2.54 2.54 0 0 0-.56.021c-1.93.36-3.17 1.68-3.85 3.64-.34.98-1.01 3.511-1.57 5.5 2-.56 4.52-1.229 5.5-1.569 1.97-.681 3.29-1.91 3.65-3.841.03-.199.04-.399.02-.6l6.05-4.33c2.75-1.97 9.29-11.22 10.58-13.06.55-.781.5-1.621-.14-2.251zM10.99 23.57c-.27 1.479-1.25 2.5-3.01 3.1-.48.17-3.34 1.01-3.73 1.11.09-.4.93-3.271 1.1-3.75.61-1.761 1.62-2.74 3.1-3.011.56-.109 1.26.171 1.81.721.55.56.84 1.26.73 1.83zm.73-1.44a3.893 3.893 0 0 0-1.85-1.84c.67-.95 1.69-2.37 2.79-3.92l2.97 2.97c-1.55 1.1-2.96 2.11-3.91 2.79zm4.74-3.38l-3.21-3.21c.22-.3.44-.61.66-.92l3.47 3.47c-.31.22-.62.44-.92.66zM27.82 5.14c-.99 1.41-6.771 9.62-9.67 12.31l-3.601-3.6c2.69-2.9 10.92-8.66 12.33-9.65.32-.22.561-.32.91.03.291.28.261.59.031.91z"></path><path fill="#31CFFF" d="M10.99 23.57c-.27 1.479-1.25 2.5-3.01 3.1-.28.1-1.39.43-2.34.71.28-.95.61-2.07.71-2.35.61-1.761 1.62-2.74 3.1-3.011.38-.069.83.03 1.24.28.26.421.38.881.3 1.271z"></path><path fill="#E371FF" d="M27.67 5.35c-1.31 1.87-6.74 9.52-9.52 12.1l-2.601-2.6C18.13 12.07 25.8 6.66 27.67 5.35z"></path><circle fill="#31CFFF" cx="26" cy="28" r="1"></circle><circle fill="#31CFFF" cx="29" cy="28" r="1"></circle><circle fill="#31CFFF" cx="23" cy="28" r="1"></circle></svg><svg width="32" height="32" viewBox="0 0 32 32" id="brush_wide" y="96"><path fill="#FFD561" d="M18.396 23.519l-4.949 4.94c-.06.05-.41.329-.76.329-.08 0-.32 0-.66-.329l-.7-.711 3.12-3.119-.71-.71-3.12 3.119-2.83-2.829 4.54-4.53-.71-.71-4.53 4.54-.71-.71 3.12-3.12-.71-.71-3.12 3.12-.71-.7c-.57-.57-.31-1.09 0-1.42l4.95-4.94 8.489 8.49z"></path><path fill="#FFA28D" d="M26.19 10.05c-2.671 2.67-5.37 4.04-5.4 4.06l-.29.15-.76-.76.149-.29c.021-.03 1.38-2.72 4.061-5.4.649-.65 1.31-.97 2.02-.97.36 0 .71.08 1.011.2.299.8.329 1.89-.791 3.01z"></path><path fill="#BCBCBC" d="M11.93 15.59l1.42-1.42 6.49 6.49-1.42 1.42zM21.95 18.57l-1.41 1.42-5.49-5.49 1.41-1.42c.34-.34.58-.34.66-.34.29 0 .59.19.72.3l4.101 4.1c.319.34.579.86.009 1.43z"></path><path fill="#BCBCBC" d="M21.95 18.57l-1.41 1.42-5.49-5.49 1.41-1.42c.34-.34.58-.34.66-.34.29 0 .59.19.72.3l4.101 4.1c.319.34.579.86.009 1.43z"></path><circle fill="#2D2220" cx="18.5" cy="15.5" r=".5"></circle><g><circle fill="#2D2220" cx="19.5" cy="16.5" r=".5"></circle></g><g><circle fill="#2D2220" cx="20.5" cy="17.5" r=".5"></circle></g><g><path fill="#2D2220" d="M26.9 5.1s-1.261-1.26-2.931-1.26c-.84 0-1.779.32-2.729 1.26C18.41 7.93 17 10.76 17 10.76l-1.42-1.42s-.62-.63-1.46-.63c-.42 0-.89.16-1.36.63l-9.19 9.2s-1.42 1.41 0 2.82l.7.71L7.1 24.9l2.12 2.119.71.711.71.71c.47.47.94.619 1.36.619.84 0 1.46-.619 1.46-.619l9.2-9.2c1.41-1.41 0-2.83 0-2.83l-.71-.7-.71-.71s2.83-1.41 5.66-4.24 0-5.66 0-5.66zM12.76 27.73c-.06.05-.41.33-.76.33-.08 0-.32 0-.66-.329l-.7-.711 2.12-2.119-.71-.71-2.12 2.119-2.83-2.83 3.54-3.53-.71-.71-3.53 3.54-.71-.71 2.12-2.12-.71-.71-2.12 2.12-.71-.7c-.57-.57-.31-1.09 0-1.42l4.95-4.94 8.49 8.49-4.95 4.94zm5.66-5.65l-6.49-6.49-2-2 1.42-1.42 2 2 6.49 6.49-1.42 1.42zm3.52-4.97c.14.149.279.34.319.55.03.109.04.229.01.35-.039.17-.14.351-.319.53l-1.41 1.42-5.48-5.48-1.01-1.01-2-2 1.41-1.42c.34-.34.58-.34.66-.34.33 0 .67.25.76.34l7.06 7.06zm-1.15-3l-.29.15-1.03-1.03.88-.88c.2-.19.2-.51 0-.7a.482.482 0 0 0-.699 0l-.881.88-1.03-1.03.149-.29c.021-.03 1.38-2.72 4.061-5.4.649-.65 1.31-.97 2.02-.97 1.221 0 2.221.96 2.221.97.1.1.54.56.79 1.23 0 .01 0 .01.01.02.02.06.04.13.06.2.01.01.01.02.01.03.03.09.051.18.061.27.03.13.04.28.04.42 0 .63-.25 1.35-.97 2.07-2.672 2.67-5.372 4.04-5.402 4.06z"></path></g><g><path fill="#2D2220" d="M23 9.5a.5.5 0 0 1-.354-.853l2-2a.5.5 0 0 1 .707.707l-2 2A.498.498 0 0 1 23 9.5z"></path></g></svg><svg width="32" height="32" viewBox="0 0 32 32" id="bulletin_board" y="128"><path fill="#2D2220" d="M2 6v20h28V6H2zm27 19H3V7h26v18z"></path><path fill="#5FFFBA" d="M5 8v2h5v1H7v3H5v11h24V8H5zm8 6h-3v3H9v-4h4v1zm7 5h-3v3h-1v-4h4v1zm6-8h-6v6h-1v-7h7v1z"></path><path fill="#2D2220" d="M11 12V9H5v6h3v3h6v-6h-3zm-3 2H6v-4h4v2H8v2zm5 3H9v-4h4v4z"></path><path fill="#2D2220" d="M10 14h3v3h-3zM10 11v1H8v2H7v-3z"></path><path fill="#FFD561" d="M10 14h3v3h-3z"></path><path fill="#FFA28D" d="M10 11v1H8v2H7v-3z"></path><path fill="#2D2220" d="M18 9v8h-3v6h6v-2h6V9h-9zm2 13h-4v-4h4v4zm6-2h-5v-3h-2v-7h7v10z"></path><path fill="#FFA28D" d="M17 19h3v3h-3z"></path><path fill="#FFD561" d="M26 11v9h-5v-3h-1v-6z"></path></svg><svg width="32" height="32" viewBox="0 0 32 32" id="camera" y="160"><path fill="#31CFFF" d="M28.01 11.98c0 .56-.45 1.01-1.01 1.01s-1.01-.45-1.01-1.01c0-.55.45-1 1.01-1s1.01.45 1.01 1z"></path><path fill="#2D2220" d="M19 13.03v1.03c1.13.23 1.99 1.24 1.99 2.44 0 1.37-1.12 2.49-2.49 2.49-1.2 0-2.21-.86-2.44-1.99h-1.03c0 .07.02.14.03.21.33 1.6 1.74 2.8 3.44 2.8a3.507 3.507 0 0 0 .5-6.98zm-1 1.03v-1.04a3.522 3.522 0 0 0-2.94 2.77c-.01.07-.03.14-.03.21h1.03c.2-.97.97-1.74 1.94-1.94z"></path><path fill="#31CFFF" d="M20.99 16.5c0 1.2-.86 2.21-1.99 2.44-1.13-.23-1.99-1.24-1.99-2.44s.86-2.21 1.99-2.44c1.13.23 1.99 1.24 1.99 2.44z"></path><path fill="#2D2220" d="M6 6h5v1H6zM19 10.02v1.02c2.81.25 4.99 2.6 4.99 5.46 0 3.03-2.46 5.49-5.49 5.49-2.86 0-5.21-2.19-5.46-4.99h-1.02c.25 3.36 3.06 6 6.48 6a6.5 6.5 0 0 0 6.5-6.5c0-3.42-2.64-6.23-6-6.48zm-1 1.02v-1.02A6.497 6.497 0 0 0 12.02 16h1.02A5.46 5.46 0 0 1 18 11.04z"></path><path fill="#5FFFBA" d="M18.5 11.01c-3.04 0-5.49 2.46-5.49 5.49 0 3.03 2.46 5.49 5.49 5.49 3.03 0 5.49-2.46 5.49-5.49 0-3.03-2.45-5.49-5.49-5.49zm0 9.98a4.49 4.49 0 1 1 0-8.98 4.49 4.49 0 0 1 0 8.98z"></path><path fill="#2D2220" d="M29 18v-8c0-1.1-.9-2-2-2H5c-1.1 0-2 .9-2 2v13c0 1.1.9 2 2 2h22c1.1 0 2-.9 2-2h-1c0 .55-.45 1-1 1H5c-.55 0-1-.45-1-1V10c0-.55.45-1 1-1h22c.55 0 1 .45 1 1v8h1z"></path><path fill="#2D2220" d="M27.01 10.98c0 .56-.45 1.01-1.01 1.01s-1.01-.45-1.01-1.01c0-.55.45-1 1.01-1s1.01.45 1.01 1zM11 10v4H8v-1h2v-2H6v-1zM6 13h1v1H6z"></path><path fill="#5FFFBA" d="M6 11h4v2H6z"></path><path fill="#2D2220" d="M30 21.5c0 .28-.22.5-.5.5h-2c-.28 0-.5-.22-.5-.5s.22-.5.5-.5h2c.28 0 .5.22.5.5zM30 19.5c0 .28-.22.5-.5.5h-2c-.28 0-.5-.22-.5-.5s.22-.5.5-.5h2c.28 0 .5.22.5.5z"></path></svg><svg width="32" height="32" viewBox="0 0 32 32" id="clip" y="192"><path fill="#FF6B43" d="M28.682 7.422a4.498 4.498 0 0 0-6.363 0l-11.313 11.31-.158.127a3 3 0 0 0 4.242 4.244l.014-.019.018.019 10.732-10.731-.707-.708-9.194 9.193.001-.032-1.571 1.571a2.002 2.002 0 0 1-2.828 0 2.002 2.002 0 0 1 0-2.83l.016-.016.016.016L23.025 8.129a3.5 3.5 0 1 1 4.949 4.95L14.6 26.453l-.072.072a5 5 0 1 1-7.071-7.071L20.196 6.715l-.707-.707L6.396 19.102l.036.035c-1.993 2.357-1.904 5.874.318 8.096 2.222 2.223 5.739 2.311 8.096.318l.036.035 13.8-13.8a4.5 4.5 0 0 0 0-6.364z"></path><path fill="#2D2220" d="M26.684 6.422a4.498 4.498 0 0 0-6.363 0L9.008 17.732l-.158.127a3 3 0 0 0 4.242 4.244l.014-.019.017.019 10.732-10.731-.707-.708-9.194 9.193.001-.032-1.571 1.571a2.002 2.002 0 0 1-2.828 0 2.002 2.002 0 0 1 0-2.83l.016-.016.016.016L21.027 7.129a3.5 3.5 0 1 1 4.949 4.95L12.602 25.453l-.072.072a5 5 0 1 1-7.071-7.071L18.198 5.715l-.707-.707L4.398 18.102l.036.035c-1.993 2.357-1.904 5.874.318 8.096 2.222 2.223 5.739 2.311 8.096.318l.036.035 13.8-13.8a4.5 4.5 0 0 0 0-6.364z"></path></svg><svg width="32" height="32" viewBox="0 0 32 32" id="cloud" y="224"><path fill="#2D2220" d="M27.62 16.11c-.351-.09-.95-.22-1.62-.36A4.787 4.787 0 0 0 21.22 11c-.47 0-.91.08-1.34.21C19.27 7.69 16.19 5 12.5 5 8.36 5 5 8.36 5 12.5c0 .57.07 1.13.19 1.66C2.79 14.75 1 16.92 1 19.5 1 22.53 3.47 25 6.5 25h19.98c2.49 0 4.52-2.03 4.52-4.52 0-2.06-1.39-3.86-3.38-4.37zM26.48 24H6.5C4.02 24 2 21.98 2 19.5S4.02 15 6.5 15A6.5 6.5 0 1 1 19 12.5l-.01.24c.62-.46 1.39-.74 2.23-.74a3.777 3.777 0 0 1 3.7 4.55c.99.2 1.97.4 2.45.53a3.52 3.52 0 0 1 2.63 3.4c0 1.94-1.58 3.52-3.52 3.52z"></path><path fill="#31CFFF" d="M30 20.48c0 1.94-1.58 3.52-3.52 3.52H6.5c-.27 0-.53-.02-.78-.07-.46-.7-.72-1.53-.72-2.43C5 19.02 7.02 17 9.5 17a6.5 6.5 0 0 1 6-9c.68 0 1.34.1 1.96.3.96 1.13 1.54 2.6 1.54 4.2l-.01.24a3.731 3.731 0 0 1 2.52-.73c1.33.1 2.46.89 3.05 2.01a3.733 3.733 0 0 1 .36 2.53c.99.2 1.97.4 2.45.53.21.06.41.13.6.22.721.33 1.3.9 1.65 1.61.25.47.38 1 .38 1.57zM27 26.5a.5.5 0 0 1 .5-.5h3a.5.5 0 0 1 0 1h-3a.5.5 0 0 1-.5-.5zM1 26.5a.5.5 0 0 1 .5-.5h23a.5.5 0 0 1 0 1h-23a.5.5 0 0 1-.5-.5zM12 28.5a.5.5 0 0 1 .5-.5h18a.5.5 0 0 1 0 1h-18a.5.5 0 0 1-.5-.5zM5 28.5a.5.5 0 0 1 .5-.5h4a.5.5 0 0 1 0 1h-4a.5.5 0 0 1-.5-.5z"></path><path fill="#2D2220" d="M7.5 13a.5.5 0 0 1-.5-.5C7 7.063 11.455 7 11.5 7a.5.5 0 0 1 .001 1C11.346 8.001 8 8.089 8 12.5a.5.5 0 0 1-.5.5z"></path><circle fill="#2D2220" cx="13.5" cy="7.5" r=".5"></circle><path fill="#2D2220" d="M27 22.5a.5.5 0 0 0-.5-.5h-7a.5.5 0 0 0 0 1h7a.5.5 0 0 0 .5-.5z"></path><g><path fill="#2D2220" d="M16 22.5a.5.5 0 0 1 .5-.5h1a.5.5 0 0 1 0 1h-1a.5.5 0 0 1-.5-.5z"></path></g></svg><svg width="32" height="32" viewBox="0 0 32 32" id="coffe" y="256"><path fill="#FFA28D" d="M15 15.5a.5.5 0 0 1 .5-.5h8a.5.5 0 0 1 0 1h-8a.5.5 0 0 1-.5-.5zM22.89 17c-.51 4.8-2.939 8.08-7.01 8.83-3.94-.84-6.29-4.1-6.78-8.83h13.79zM19.934 3.22a.52.52 0 0 0-.699-.14.514.514 0 0 0-.141.7c1.17 1.75 1.121 3.21.301 4.17-.25.3-.471.49-.811.7-.459.27-.939.56-1.25 1.09-.51.88-.43 1.95.23 3.02.09.16.25.24.42.24l.26-.07c.24-.15.311-.46.17-.69-.33-.53-.631-1.3-.219-2 .189-.31.52-.51.898-.73a4.14 4.14 0 0 0 1.061-.91c1.36-1.59.94-3.64-.22-5.38zM14.904 2.21a.499.499 0 0 0-.81.58c.5.72 1.01 1.84.89 2.8-.13 1.09-.96 1.33-2.38 1.64-.43.1-.86.19-1.27.33-1.21.42-1.93 1.08-2.19 2.02-.31 1.07-.11 2.36.49 3.21.1.14.25.21.41.21a.499.499 0 0 0 .41-.79c-.42-.59-.57-1.58-.35-2.36.17-.61.67-1.04 1.56-1.35.35-.12.74-.2 1.15-.29 1.33-.29 2.93-.65 3.17-2.5.181-1.57-.779-3.08-1.08-3.5z"></path><path fill="#2D2220" d="M18.93 3.22a.522.522 0 0 0-.7-.14c-.23.16-.29.47-.14.7 1.17 1.75 1.12 3.21.3 4.17-.25.3-.47.49-.81.7-.46.27-.94.56-1.25 1.09-.51.88-.43 1.95.23 3.02.09.16.25.24.42.24l.26-.07c.24-.15.31-.46.17-.69-.33-.53-.63-1.3-.22-2 .189-.31.52-.51.899-.73.38-.23.7-.49 1.061-.91 1.36-1.59.94-3.64-.22-5.38zM13.9 2.21a.499.499 0 0 0-.81.58c.5.72 1.01 1.84.89 2.8-.13 1.09-.96 1.33-2.38 1.64-.43.1-.86.19-1.27.33-1.21.42-1.93 1.08-2.19 2.02-.31 1.07-.11 2.36.49 3.21.1.14.25.21.41.21a.499.499 0 0 0 .41-.79c-.42-.59-.57-1.58-.35-2.36.17-.61.67-1.04 1.56-1.35.35-.12.74-.2 1.15-.29 1.33-.29 2.93-.65 3.17-2.5.18-1.57-.78-3.08-1.08-3.5zM23.97 16.01c.01-.33.03-.66.03-1.01 0-.55-.45-1-1-1H5c-.55 0-1 .45-1 1 0 5.59 2.08 9.33 5.47 11H9c-.28 0-.5.22-.5.5s.22.5.5.5h10c.28 0 .5-.22.5-.5s-.22-.5-.5-.5h-.47c.56-.28 1.09-.61 1.58-1 6.83-.04 7.949-3.72 7.949-5.5.001-2.42-1.569-3.43-4.089-3.49zM14 26c-5.8 0-9-4.37-9-11h18c0 1.45-.15 2.79-.46 4H16.5c-.28 0-.5.22-.5.5s.22.5.5.5h5.75c-.24.73-.55 1.4-.91 2H17.5c-.28 0-.5.22-.5.5s.22.5.5.5h3.16c-1.52 1.91-3.77 3-6.66 3zm7.21-2.05c1.46-1.67 2.39-4 2.68-6.95 2.721.05 3.051 1.23 3.051 2.5-.001.78-.251 3.98-5.731 4.45z"></path><path fill="#2D2220" d="M5 16h18v1H5z"></path></svg><svg width="32" height="32" viewBox="0 0 32 32" id="device" y="288"><circle fill="#5FFFBA" cx="17" cy="28" r="1"></circle><path fill="#2D2220" d="M13 4h6v1h-6z"></path><g fill="#2D2220"><path d="M13 4v1h6V4h-6zm0 0v1h6V4h-6zm0 0v1h6V4h-6zm0 0v1h6V4h-6zm-3 20v1h12v-1H10zm3-20v1h6V4h-6zm-3 20v1h12v-1H10zm3-20v1h6V4h-6zm-3 20v1h12v-1H10zM23 2H9c-.55 0-1 .45-1 1v5h1V7h14v21c0 .55-.45 1-1 1H10c-.55 0-1-.45-1-1V13H8v16c0 .55.45 1 1 1h14c.55 0 1-.45 1-1V3c0-.55-.45-1-1-1zm0 4H9V4c0-.55.45-1 1-1h12c.55 0 1 .45 1 1v2zm-1 18H10v1h12v-1zM13 5h6V4h-6v1zm-3 19v1h12v-1H10zm3-20v1h6V4h-6zm0 0v1h6V4h-6zm0 0v1h6V4h-6zm0 0v1h6V4h-6z"></path><path d="M13 4h6v1h-6z"></path></g><path fill="#2D2220" d="M13 4h6v1h-6z"></path><path fill="#2D2220" d="M13 4h6v1h-6z"></path><path fill="#5FFFBA" d="M14 5h6v1h-6zM15 7h1v17h-1zM13 7h1v17h-1zM17 7h6v17h-6z"></path><circle fill="#2D2220" cx="16" cy="27" r="1"></circle><path fill="#2D2220" d="M10 9.5a.5.5 0 0 0-.5-.5h-2a.5.5 0 0 0 0 1h2a.5.5 0 0 0 .5-.5zM10 11.5a.5.5 0 0 0-.5-.5h-2a.5.5 0 0 0 0 1h2a.5.5 0 0 0 .5-.5z"></path></svg><svg width="32" height="32" viewBox="0 0 32 32" id="dropper" y="320"><path fill="#31CFFF" d="M18.24 18l-6 6H10v-3.24L12.76 18z"></path><path fill="#E371FF" d="M26.09 10.15l-2.82 2.83 1.41 1.42-1.41 1.41-5.079-5.07 1.42-1.42 1.409 1.42 2.83-2.83c.591-.58 1.181-.19 1.36-.05.04.03.06.05.06.05s.16.16.4.41l.13.13.141.14c.059.05.109.11.149.15.71.71 0 1.41 0 1.41z"></path><path fill="#31CFFF" d="M6 22v4h4s0 4-4 4-4-4-4-4 0-4 4-4z"></path><path fill="#2D2220" d="M26.8 8.03L23.97 5.2s-1.41-1.41-2.83 0l-2.12 2.13-1.41-1.42-2.83 2.83 1.42 1.41-9.19 9.19L7 25h5.66l9.189-9.19 1.42 1.41 2.82-2.82-1.41-1.42 2.12-2.12c.001 0 1.411-1.41.001-2.83zM20.24 16H15.5c-.28 0-.5.22-.5.5s.22.5.5.5h3.74l-7 7H8v-4.24L10.76 17h2.74c.28 0 .5-.22.5-.5s-.22-.5-.5-.5h-1.74l5.14-5.14 4.24 4.24-.9.9zm5.85-5.85l-2.82 2.83 1.41 1.42-1.41 1.41-5.079-5.07-2-2 1.42-1.42 1.409 1.42 2.83-2.83c.71-.7 1.42 0 1.42 0s1.07 1.07 1.94 1.95c.04.03.06.05.06.05s.16.16.4.41c.05.04.1.09.13.13l.141.14c.059.05.109.11.149.15.71.71 0 1.41 0 1.41z"></path></svg><svg width="32" height="32" viewBox="0 0 32 32" id="eraser" y="352"><path fill="#E371FF" d="M28.21 5l-5 10h-8.63l5-10z"></path><path fill="#FFA28D" d="M22.21 17l-4.5 9H8.79l4.5-9z"></path><path fill="#2D2220" d="M29.1 5.45l-10.5 21c-.17.34-.51.55-.89.55H8.5c-.28 0-.5-.22-.5-.5s.22-.5.5-.5h9.21l5-10H9.29l-5 10H5.5c.28 0 .5.22.5.5s-.22.5-.5.5H4.29c-.35 0-.67-.18-.85-.47-.18-.3-.2-.67-.04-.98l10.5-21c.16-.34.51-.55.89-.55h8.71c.28 0 .5.22.5.5s-.22.5-.5.5h-8.71l-5 10h13.42l5-10H25.5c-.28 0-.5-.22-.5-.5s.22-.5.5-.5h2.71c.35 0 .67.18.85.47.18.3.2.67.04.98z"></path></svg><svg width="32" height="32" viewBox="0 0 32 32" id="folder" y="384"><g fill="#FFD561"><path d="M4.1 26H4v-.47c0 .16.04.32.1.47zM7.9 12.74c-.03.23-.07.44-.11.47l.11-.47z"></path><path d="M25 10.5v.5H8.61c-.74 0-1.42.46-1.59 1.19L4.03 25.1c-.01.06-.03.11-.03.16V7h5.19l.21.11 1.55 2.33c.24.35.63.56 1.04.56H24.5c.28 0 .5.22.5.5z"></path><path d="M29.95 12.5l-.57 2.5H24.5c-.28 0-.5.22-.5.5s.22.5.5.5h4.65l-.471 2.02L23.5 18c-.28 0-.5.22-.5.5s.22.5.5.5h4.96L28 21h-5.5c-.28 0-.5.22-.5.5s.22.5.5.5h5.27l-.46 2H21.5c-.28 0-.5.22-.5.5s.22.5.5.5h5.58l-.12.5a.67.67 0 0 1-.62.5H10.4c-.28 0-.45-.22-.38-.5L12.9 13l.11-.5c.05-.28.34-.5.61-.5h15.94c.28 0 .45.22.39.5z"></path></g><path fill="#2D2220" d="M30.71 11.39c-.27-.33-.67-.39-1.1-.39H26V8.5c0-.83-.67-1.5-1.5-1.5H20v1h4.5c.28 0 .5.22.5.5V11H8.61c-.74 0-1.42.46-1.59 1.19L4.03 25.1c-.01.06-.03.11-.03.16v.271c0 .159.04.319.1.469h-.6c-.28 0-.5-.22-.5-.5v-20c0-.28.22-.5.5-.5h5.69l.21.11 1.55 2.33c.24.35.63.56 1.04.56H16V7h-4.01l-.2-.11-1.56-2.33C10 4.21 9.61 4 9.19 4H3.5C2.67 4 2 4.67 2 5.5v20c0 .83.67 1.5 1.5 1.5h22.89c.74 0 1.431-.64 1.591-1.38l2.989-13.09c.1-.43 0-.81-.26-1.14zm-.76 1.11l-.57 2.5H24.5c-.28 0-.5.22-.5.5s.22.5.5.5h4.65l-.471 2.02L23.5 18c-.28 0-.5.22-.5.5s.22.5.5.5h4.96L28 21h-5.5c-.28 0-.5.22-.5.5s.22.5.5.5h5.27l-.46 2H21.5c-.28 0-.5.22-.5.5s.22.5.5.5h5.58l-.12.5a.67.67 0 0 1-.62.5h-21c-.27 0-.45-.22-.38-.5l2.83-12.29.11-.47.05-.24c.05-.24.27-.44.51-.49.03-.01.07-.01.1-.01h21c.28 0 .45.22.39.5z"></path><path fill="#2D2220" d="M17 7h2v1h-2z"></path></svg><svg width="32" height="32" viewBox="0 0 32 32" id="fountain_pen" y="416"><path fill="#2D2220" d="M19 25.5a.5.5 0 0 0-.5-.5h-9a.5.5 0 0 0 0 1h9a.5.5 0 0 0 .5-.5z"></path><path fill="#BCBCBC" d="M11.46 22.46L8.75 27s-.49.02-1.11.06c-.51.03-1.1.08-1.58.16-.12.021-.23.04-.33.061l-.15.029-.26.07.39-.39c-.18-.49-1.04-.38-1.04-.38l2.43-2.09 3.45-2.97.91.91zM13.46 21.5l-.86.69-1.79-1.79.69-.86zM16.64 18.94l-.78.62-1.62 1.31-2.11-2.12 1.3-1.62.62-.78z"></path><path fill="#2D2220" d="M28.26 3.77c-1.44-1.44-2.79-.48-3.23-.17-2.65 1.77-9.66 6.92-11.88 10.03L8.5 19.5l.36.36L4 22.75c0 4-1 5.52-1 5.52l.73.73s1.52-1 5.52-1l2.9-4.86.35.36 5.85-4.66c2.76-1.97 8.26-9.22 10.1-11.85.79-1.12.72-2.32-.19-3.22zM8.75 27s-2.18.07-3.17.31l-.26.07 2.02-2.03c.2-.189.2-.51 0-.699-.19-.2-.51-.2-.71 0l-1.96 1.96.04-.181c.25-.99.29-3.18.29-3.18l4.55-2.7 1.91 1.91L8.75 27zm3.85-4.81L9.81 19.4l.69-.86 2.96 2.96-.86.69zm1.64-1.32l-2.11-2.12-1-1 1.3-1.62 3.43 3.43-1.62 1.31zm3.53-2.84l-1.129.91-3.59-3.59.91-1.13c.57-.79 1.5-1.76 2.6-2.77l1 1 2.95 2.96c-1.041 1.14-2.001 2.09-2.741 2.62zm9.87-11.61c-1.18 1.67-3.949 5.37-6.46 8.24l-2.88-2.88-1-1c2.8-2.46 6.38-5.08 8.28-6.35.26-.18.64-.43 1.04-.43.31 0 .62.15.939.48.181.18.311.37.37.58.03.06.04.13.051.19.07.36-.05.75-.34 1.17z"></path><path fill="#5FFFBA" d="M20.51 15.41c-1.04 1.14-2 2.09-2.74 2.62l-1.129.91-2.59-2.59.91-1.13c.57-.79 1.5-1.76 2.6-2.77l2.949 2.96zM27.64 6.42c-1.18 1.67-3.949 5.37-6.46 8.24l-2.88-2.88c2.8-2.46 6.38-5.08 8.28-6.35.26-.18.64-.43 1.04-.43.1 0 .21.02.31.06.15.42.05.87-.29 1.36z"></path><path fill="#2D2220" d="M20 28.5a.5.5 0 0 0-.5-.5h-16a.5.5 0 0 0 0 1h16a.5.5 0 0 0 .5-.5zM23 25.5a.5.5 0 0 0-.5-.5h-2a.5.5 0 0 0 0 1h2a.5.5 0 0 0 .5-.5zM26 25.5a.5.5 0 0 0-.5-.5h-1a.5.5 0 0 0 0 1h1a.5.5 0 0 0 .5-.5zM24 28.5a.5.5 0 0 0-.5-.5h-2a.5.5 0 0 0 0 1h2a.5.5 0 0 0 .5-.5zM27 28.5a.5.5 0 0 0-.5-.5h-1a.5.5 0 0 0 0 1h1a.5.5 0 0 0 .5-.5z"></path></svg><svg width="32" height="32" viewBox="0 0 32 32" id="graphic_design" y="448"><path fill="#31CFFF" d="M15 25h7v1h-7zM11 27h10v1H11z"></path><path fill="#BCBCBC" d="M19.35 20.82c-.729.72-2.29 1.279-3.43 1.6.31-1.13.88-2.72 1.6-3.43l1.83 1.83z"></path><path fill="#2D2220" d="M27.83 9.5c-.36-.14-.71-.2-1.05-.2-1.37 0-2.48.91-2.48.91s-3.01 2.41-5.49 4.48C18.47 12.08 17.73 8.47 17 7c-1-2-2-2-2-2H8S7 5 6 7c-.76 1.52-1.52 5.37-1.84 8h1c.11-.91.28-1.96.48-3h11.72l.18 1c.15.87.27 1.72.35 2.45-.93.79-1.7 1.46-2.08 1.83-1 1-1.65 3.08-1.94 4.189-.29-.109-.62-.18-.97-.18-.55 0-1.16.18-1.78.71H11c-.2 0-.38 0-.57-.02-.18 0-.36-.021-.53-.04C6.37 21.59 5.35 19.52 5.08 18h-1c.31 1.98 1.66 4.71 6.18 4.98-1.37 2.11-.81 4.91-.81 4.91s.55.11 1.38.11c2.62 0 3.63-1 3.63-1 1.15-.88 1.51-2 1.51-2 .14-.57.06-1.1-.11-1.54 1.12-.29 3.19-.93 4.19-1.94 1.42-1.409 7.07-8.479 7.07-8.479s1.34-1.581.71-3.541zM11 11H5.84c.32-1.49.69-2.84 1.05-3.55C7.47 6.29 7.97 6.04 8.08 6H11v5zm1 0V6h2.92c.09.03.47.22.94 1 .08.13.16.28.25.45.36.71.73 2.06 1.05 3.55H12zm.12 15.89c-.6.08-1.17.101-1.77.101a6.94 6.94 0 0 1 .11-1.82c.24-1.229 1.17-3.11 2.7-2.86.99.16 1.89 1.051 1.89 2.08 0 1.459-1.72 2.259-2.93 2.499zm3.8-4.47c-.18.05-.35.09-.5.13l-.22-.21-.06-.07-.08-.079-.27-.28c.12-.5.32-1.19.57-1.86l1.93 1.92c-.47.179-.95.329-1.37.449zm2.35-.88l-2.479-2.47c.22-.44.46-.82.73-1.08l1 1 1.83 1.83c-.271.26-.651.51-1.081.72zm8.56-10.04c-.18.53-.46.88-.49.91-.04.06-4.35 5.45-6.31 7.68l-2.78-2.78c2.23-1.959 7.61-6.28 7.68-6.319 0-.01.88-.69 1.851-.69.069 0 .14.01.21.01a2.51 2.51 0 0 1-.161 1.189z"></path><path fill="#31CFFF" d="M15.05 24.39c0 .42-.16.891-.65 1.38-.86.86-2.06 1.15-3.05 1.211-.06-1.011.02-2.841 1.22-4.04.28-.28.56-.471.84-.57.4.12.72.35.88.47l.07.061.12.119c.23.259.57.759.57 1.369z"></path><path fill="#E371FF" d="M26.83 11.5c-.18.53-.46.88-.49.91-.04.06-4.35 5.45-6.31 7.68l-1.78-1.78c2.23-1.959 7.61-6.28 7.68-6.319 0-.011.37-.301.9-.491z"></path><path fill="#FFA28D" d="M17.16 11H13V7h2.86c.08.13.16.28.25.45.36.71.73 2.06 1.05 3.55zM11 7v4H7.07c.26-1.08.54-2 .82-2.55C8.47 7.29 8.97 7.04 9.08 7H11z"></path><path fill="#BCBCBC" d="M17.16 11H13V7h2.86c.08.13.16.28.25.45.36.71.73 2.06 1.05 3.55zM11 7v4H7.07c.26-1.08.54-2 .82-2.55C8.47 7.29 8.97 7.04 9.08 7H11zM17.89 15.45c-.93.79-1.7 1.46-2.08 1.83-1 1-1.65 3.08-1.94 4.189-.29-.109-.62-.18-.97-.18-.55 0-1.16.18-1.78.71H11c-.2 0-.38 0-.57-.02-.18 0-.36-.021-.53-.04C8.24 20.79 8 18.97 8 18c0-1.02.26-3.04.64-5h8.9c.15.87.27 1.72.35 2.45z"></path><circle fill="#2D2220" cx="4.5" cy="16.5" r=".5"></circle><path fill="#31CFFF" d="M26 25.5a.5.5 0 0 0-.5-.5h-2a.5.5 0 0 0 0 1h2a.5.5 0 0 0 .5-.5zM29 25.5a.5.5 0 0 0-.5-.5h-1a.5.5 0 0 0 0 1h1a.5.5 0 0 0 .5-.5zM25 27.5a.5.5 0 0 0-.5-.5h-2a.5.5 0 0 0 0 1h2a.5.5 0 0 0 .5-.5zM28 27.5a.5.5 0 0 0-.5-.5h-1a.5.5 0 0 0 0 1h1a.5.5 0 0 0 .5-.5z"></path></svg><svg width="32" height="32" viewBox="0 0 32 32" id="headphones" y="480"><path fill="#E371FF" d="M26.79 18.11A2.002 2.002 0 0 0 25 17c-.17 0-.34.02-.5.07.8.199 1.4.89 1.48 1.729.02.061.02.131.02.201v1.55c.35-.77.62-1.59.79-2.44zM17 4c-.17 0-.33 0-.5.02 5.92.23 10.74 4.76 11.41 10.57.02.18.04.37.05.56.03.28.04.56.04.85 0 .2-.01.4-.02.6a10.377 10.377 0 0 1-.211 1.57 11.78 11.78 0 0 1-1.77 4.42V26c0 .07 0 .14-.02.2-.08.84-.681 1.53-1.48 1.729.161.051.331.071.501.071 1.1 0 2-.9 2-2v-3.41c1.25-1.89 2-4.149 2-6.59 0-6.63-5.37-12-12-12zm-.57 1.01C16.29 5 16.14 5 16 5 10.39 5 5.77 9.18 5.09 14.59v.03c-.02.18-.04.35-.05.53-.03.28-.04.56-.04.85a12.022 12.022 0 0 0 .07 1.2c.13 1.18.46 2.31.93 3.35V19c0-.32.07-.62.21-.89C6.07 17.43 6 16.72 6 16c0-5.89 4.62-10.69 10.43-10.99zM9 17c-.17 0-.34.02-.5.07.8.199 1.4.89 1.48 1.729.02.061.02.131.02.201v7c0 .07 0 .14-.02.2-.08.84-.68 1.53-1.48 1.73.16.05.33.07.5.07 1.1 0 2-.9 2-2v-7c0-1.1-.9-2-2-2z"></path><path fill="#31CFFF" d="M9 19v7c0 .37-.2.69-.5.86-.15.09-.32.14-.5.14v-9c.18 0 .35.05.5.14.3.17.5.49.5.86zM25 19v7c0 .37-.2.69-.5.86-.15.09-.32.14-.5.14v-9c.18 0 .35.05.5.14.3.17.5.49.5.86z"></path><path fill="#2D2220" d="M16 4C9.373 4 4 9.373 4 16c0 2.439.746 4.695 2 6.588V26a2 2 0 0 0 4 0v-7a2 2 0 0 0-4 0v1.546C5.365 19.16 5 17.625 5 16 5 9.925 9.925 5 16 5s11 4.925 11 11c0 1.625-.365 3.16-1 4.546V19a2 2 0 0 0-4 0v7a2 2 0 0 0 4 0v-3.412A11.88 11.88 0 0 0 28 16c0-6.627-5.373-12-12-12zM7 19a1 1 0 1 1 2 0v7a1 1 0 1 1-2 0v-7zm18 7a1 1 0 1 1-2 0v-7a1 1 0 1 1 2 0v7z"></path></svg><svg width="32" height="32" viewBox="0 0 32 32" id="image" y="512"><path fill="#2D2220" d="M27.5 6h-23C3.67 6 3 6.67 3 7.5v17c0 .83.67 1.5 1.5 1.5h23c.83 0 1.5-.67 1.5-1.5v-17c0-.83-.67-1.5-1.5-1.5zm.5 12.69v5.81c0 .28-.22.5-.5.5h-23c-.28 0-.5-.22-.5-.5v-.75-1l10.31-6.81 3.04 2.23 5.24-4.23L28 17.69v1zm0-2.29l-4.84-3.28c-.18-.12-.37-.18-.561-.18-.189 0-.39.06-.56.18l-4.7 3.76-2.52-1.78a.98.98 0 0 0-.56-.18c-.19 0-.38.06-.56.18L4 21.54V7.5c0-.28.22-.5.5-.5h23c.28 0 .5.22.5.5v8.9z"></path><path fill="#FFD561" d="M13 11c0 .93-.64 1.71-1.5 1.93-.86-.22-1.5-1-1.5-1.93s.64-1.71 1.5-1.93c.86.22 1.5 1 1.5 1.93z"></path><path fill="#5FFFBA" d="M28 18.69v5.81c0 .28-.22.5-.5.5h-23c-.28 0-.5-.22-.5-.5v-.75l10.31-6.81 3.04 2.23 5.24-4.23L28 18.69z"></path><path fill="#2D2220" d="M11 9c1.103 0 2 .897 2 2s-.897 2-2 2-2-.897-2-2 .897-2 2-2m0-1a3 3 0 1 0 0 6 3 3 0 0 0 0-6z"></path></svg><svg width="32" height="32" viewBox="0 0 32 32" id="laptop" y="544"><path fill="#2D2220" d="M26 7v13H15.5c-.28 0-.5-.22-.5-.5s.22-.5.5-.5H25V8H7v11h1.5c.28 0 .5.22.5.5s-.22.5-.5.5H6V7h20z"></path><path fill="#FFD561" d="M14 8h11v11H14zM12 8h1v11h-1zM10 8h1v11h-1zM1 28h30v1H1z"></path><path fill="#2D2220" d="M23 5.5c0 .28-.22.5-.5.5h-8c-.28 0-.5-.22-.5-.5s.22-.5.5-.5h8c.28 0 .5.22.5.5z"></path><path fill="#2D2220" d="M30.86 26.49l-3-5a.975.975 0 0 0-.23-.26c.22-.29.37-.68.37-1.23V7s0-2-2-2h-2 .5c-.28 0-.5.22-.5.5s.22.5.5.5H26c.81 0 .99.55 1 1v13c0 .81-.55.99-1 1H6c-.81 0-.99-.55-1-1V7c0-.81.55-.99 1-1h16.5c.279 0 .5-.22.5-.5s-.221-.5-.5-.5H6S4 5 4 7v13s0 .66.38 1.22c-.09.07-.18.16-.24.271l-3 5c-.18.3-.19.689-.01 1 .18.319.51.509.87.509h28c.36 0 .69-.19.87-.51.18-.31.17-.7-.01-1zM2 27l3-5h22l3 5H2z"></path><path fill="#2D2220" d="M14 19.5a.5.5 0 0 0-.5-.5h-3a.5.5 0 0 0 0 1h3a.5.5 0 0 0 .5-.5zM19 25.5a.5.5 0 0 0-.5-.5h-13a.5.5 0 0 0 0 1h13a.5.5 0 0 0 .5-.5zM23 25.5a.5.5 0 0 0-.5-.5h-1a.5.5 0 0 0 0 1h1a.5.5 0 0 0 .5-.5zM27 25.5a.5.5 0 0 0-.5-.5h-1a.5.5 0 0 0 0 1h1a.5.5 0 0 0 .5-.5zM25 23.5a.5.5 0 0 0-.5-.5h-9a.5.5 0 0 0 0 1h9a.5.5 0 0 0 .5-.5zM13 23.5a.5.5 0 0 0-.5-.5h-1a.5.5 0 0 0 0 1h1a.5.5 0 0 0 .5-.5zM9 23.5a.5.5 0 0 0-.5-.5h-1a.5.5 0 0 0 0 1h1a.5.5 0 0 0 .5-.5z"></path></svg><svg width="32" height="32" viewBox="0 0 32 32" id="lightbulb_idea" y="576"><path fill="#31CFFF" d="M29 23.5c0 .28-.22.5-.5.5H28v.5c0 .28-.22.5-.5.5s-.5-.22-.5-.5V24h-.5c-.28 0-.5-.22-.5-.5s.22-.5.5-.5h.5v-.5c0-.28.22-.5.5-.5s.5.22.5.5v.5h.5c.28 0 .5.22.5.5z"></path><path fill="#5FFFBA" d="M8 24.5c0 .28-.22.5-.5.5H6v1.5c0 .28-.22.5-.5.5s-.5-.22-.5-.5V25H3.5c-.28 0-.5-.22-.5-.5s.22-.5.5-.5H5v-1.5c0-.28.22-.5.5-.5s.5.22.5.5V24h1.5c.28 0 .5.22.5.5zM30 5.5c0 .28-.22.5-.5.5H28v1.5c0 .28-.22.5-.5.5s-.5-.22-.5-.5V6h-1.5c-.28 0-.5-.22-.5-.5s.22-.5.5-.5H27V3.5c0-.28.22-.5.5-.5s.5.22.5.5V5h1.5c.28 0 .5.22.5.5z"></path><path fill="#31CFFF" d="M7 5.5c0 .28-.22.5-.5.5H6v.5c0 .28-.22.5-.5.5S5 6.78 5 6.5V6h-.5c-.28 0-.5-.22-.5-.5s.22-.5.5-.5H5v-.5c0-.28.22-.5.5-.5s.5.22.5.5V5h.5c.28 0 .5.22.5.5z"></path><path fill="#FFD561" d="M22.96 10.73c-.02-.24-.06-.48-.11-.71V10a7.487 7.487 0 0 0-3.58-5c-.14-.09-.289-.16-.439-.23a7.038 7.038 0 0 0-1.72-.61c-.2-.05-.4-.08-.601-.11h-.01a7.5 7.5 0 0 0-6.5 7.43c0 1.37.36 2.65 1 3.75.65 1.13 1.91 3.01 3 4.6v-5.92c-.16.05-.32.09-.5.09-.83 0-1.5-.67-1.5-1.5s.67-1.5 1.5-1.5 1.5.67 1.5 1.5V21h1v-8.5c0-.83.67-1.5 1.5-1.5.68 0 1.25.45 1.43 1.07.62.18 1.07.75 1.07 1.43 0 .83-.67 1.5-1.5 1.5-.18 0-.34-.03-.5-.09V21h.19c.76-1.09 1.75-2.54 2.59-3.82.1-.14.189-.28.27-.42.38-.58.71-1.11.95-1.53.64-1.1 1-2.38 1-3.75 0-.26-.01-.5-.04-.75z"></path><path fill="#2D2220" d="M22.03 6H20.6a7.25 7.25 0 0 1 1.971 3h1.069a8.38 8.38 0 0 0-1.61-3z"></path><path fill="#BCBCBC" d="M18 22v1h-3v-1h3zM15 24h3v1h-3zM15 26h3v.95c0 .71-.76 1.39-1.5 1.76-.74-.37-1.5-1.05-1.5-1.76V26z"></path><path fill="#2D2220" d="M28 22.5c0 .28-.22.5-.5.5H27v.5c0 .28-.22.5-.5.5s-.5-.22-.5-.5V23h-.5c-.28 0-.5-.22-.5-.5s.22-.5.5-.5h.5v-.5c0-.28.22-.5.5-.5s.5.22.5.5v.5h.5c.28 0 .5.22.5.5zM7 23.5c0 .28-.22.5-.5.5H5v1.5c0 .28-.22.5-.5.5s-.5-.22-.5-.5V24H2.5c-.28 0-.5-.22-.5-.5s.22-.5.5-.5H4v-1.5c0-.28.22-.5.5-.5s.5.22.5.5V23h1.5c.28 0 .5.22.5.5zM29 4.5c0 .28-.22.5-.5.5H27v1.5c0 .28-.22.5-.5.5s-.5-.22-.5-.5V5h-1.5c-.28 0-.5-.22-.5-.5s.22-.5.5-.5H26V2.5c0-.28.22-.5.5-.5s.5.22.5.5V4h1.5c.28 0 .5.22.5.5zM6 4.5c0 .28-.22.5-.5.5H5v.5c0 .28-.22.5-.5.5S4 5.78 4 5.5V5h-.5c-.28 0-.5-.22-.5-.5s.22-.5.5-.5H4v-.5c0-.28.22-.5.5-.5s.5.22.5.5V4h.5c.28 0 .5.22.5.5zM22.87 15.68c.72-1.25 1.13-2.7 1.13-4.24 0-.49-.04-.97-.12-1.44h-1.03c.1.48.15.97.15 1.48 0 1.37-.36 2.65-1 3.75-.82 1.42-2.61 4.04-3.81 5.77H17v-7.09c.16.05.32.09.5.09.83 0 1.5-.67 1.5-1.5s-.67-1.5-1.5-1.5-1.5.67-1.5 1.5V21h-1v-8.5c0-.83-.67-1.5-1.5-1.5s-1.5.67-1.5 1.5.67 1.5 1.5 1.5c.18 0 .34-.04.5-.09V21h-1.19c-1.2-1.73-2.99-4.35-3.81-5.77-.64-1.1-1-2.38-1-3.75 0-4.14 3.36-7.5 7.5-7.5 1.37 0 2.65.37 3.75 1.02h1.79a8.436 8.436 0 0 0-5.54-2.06c-4.69 0-8.5 3.81-8.5 8.5 0 1.54.41 2.99 1.13 4.24.84 1.44 2.54 4.02 3.87 5.99V23h-.5c-.28 0-.5.22-.5.5s.22.5.5.5h.5v1h-.5c-.28 0-.5.22-.5.5s.22.5.5.5h.5v.95C12 28.5 14.29 30 15.5 30s3.5-1.5 3.5-3.05V26h.5c.28 0 .5-.22.5-.5s-.22-.5-.5-.5H19v-1h.5c.28 0 .5-.22.5-.5s-.22-.5-.5-.5H19v-1.33c1.33-1.97 3.03-4.55 3.87-5.99zm-5.37-3.69a.5.5 0 0 1 .49.5c0 .28-.221.5-.49.5s-.49-.22-.49-.5c0-.27.22-.5.49-.5zm-4 1.01a.5.5 0 0 1-.49-.5c0-.28.22-.5.49-.5s.49.22.49.5a.5.5 0 0 1-.49.5zM18 26.95c0 .71-.76 1.39-1.5 1.76-.36.18-.72.29-1 .29-.83 0-2.5-1-2.5-2.05V26h5v.95zM18 25h-5v-1h5v1zm0-2h-5v-1h5v1z"></path></svg><svg width="32" height="32" viewBox="0 0 32 32" id="monitor" y="608"><path fill="#FFD561" d="M12 8h1v14h-1zM10 8h1v14h-1zM14 8v14h14V10s-1-2-2-2H14z"></path><path fill="#2D2220" d="M28.5 6h-25C2.67 6 2 6.67 2 7.5v16c0 .83.67 1.5 1.5 1.5H15v2h-5v1h12v-1h-5v-2h11.5c.83 0 1.5-.67 1.5-1.5v-16c0-.83-.67-1.5-1.5-1.5zm.5 15H6v1h23v1.5c0 .28-.22.5-.5.5h-25c-.28 0-.5-.22-.5-.5v-16c0-.28.22-.5.5-.5h25c.28 0 .5.22.5.5V21z"></path><path fill="#2D2220" d="M28 9.5v10h-1v-10c0-.4-.28-.49-.51-.5H5.5c-.4 0-.49.27-.5.51V22H4V9.5C4 8.9 4.4 8 5.5 8h21c.6 0 1.5.4 1.5 1.5z"></path><path fill="#FFD561" d="M11 28h8v1h-8zM20 28h3v1h-3z"></path></svg><svg width="32" height="32" viewBox="0 0 32 32" id="pencil" y="640"><path fill="#2D2220" d="M27.05 4.93a3.271 3.271 0 0 0-4.6 0L6.68 20.72c-.09.09-.17.2-.22.32l-2.51 5.69c-.16.369-.07.81.21 1.1.29.29.73.37 1.11.21l5.69-2.51c.12-.05.22-.12.31-.21L27.05 9.53a3.271 3.271 0 0 0 0-4.6zM7.13 26.13l-1.26-1.26 1.31-2.98 2.93 2.92-2.98 1.32zm3.81-1.9l-1.18-1.18-2-2c1.51-1.51 7.25-7.26 11.29-11.3l2 2 1.181 1.18c-4.041 4.05-9.781 9.79-11.291 11.3zm11.99-12l-2.18-2.18-1-1 .86-.86 1 1 2.18 2.18-.86.86zm1.57-1.56l-2.19-2.19-1-1c.25-.24.471-.46.671-.67l1 1L25.16 10c-.2.2-.42.42-.66.67zm1.84-1.85c-.07.07-.229.24-.47.47l-2.18-2.18-1-1c.229-.24.39-.4.47-.47.88-.88 2.3-.88 3.18 0 .17.17.311.37.41.58h.01l.03.06c.02.06.05.12.07.18.029.07.05.15.069.23a.07.07 0 0 1 .011.04c.02.08.04.16.04.24.01.08.02.17.02.26 0 .57-.22 1.15-.66 1.59z"></path><path fill="#FF6B43" d="M10.11 24.81l-2.98 1.32-.26-.26 1.31-2.98z"></path><path fill="#FF8366" d="M10.11 24.81l-2.98 1.32-.26-.26 1.31-2.98zM26.34 8.82c-.07.07-.229.24-.47.47l-2.18-2.18c.229-.24.39-.4.47-.47.71-.71 1.76-.85 2.6-.42.43.84.29 1.89-.42 2.6z"></path><path fill="#BCBCBC" d="M25.16 10c-.2.2-.42.42-.66.67l-2.19-2.19c.25-.24.471-.46.671-.67L25.16 10zM23.79 11.37l-.86.86-2.18-2.18.86-.86 2.18 2.18z"></path><path fill="#FFD561" d="M22.23 12.93c-4.04 4.05-9.78 9.79-11.291 11.3L9.76 23.05c1.51-1.51 7.25-7.26 11.29-11.3l1.18 1.18z"></path></svg><svg width="32" height="32" viewBox="0 0 32 32" id="pencil_tip" y="672"><path fill="#FFD561" d="M12 18h10v11H12z"></path><path fill="#FFA28D" d="M21.66 17H13l3.85-9h.96z"></path><path fill="#2D2220" d="M22.96 17.48l-6.5-15.17c-.08-.19-.26-.3-.46-.3s-.38.11-.46.3l-6.5 15.17-.04.19v12.32h14V17.67l-.04-.19zM14.19 8h3.62l3.851 9H10.34l3.85-9zM22 29h-3v-.5c0-.28-.22-.5-.5-.5s-.5.22-.5.5v.5h-2v-3.5c0-.28-.22-.5-.5-.5s-.5.22-.5.5V29h-1v-8.5c0-.28-.22-.5-.5-.5s-.5.22-.5.5V29h-3V18h8v7.5c0 .28.22.5.5.5s.5-.22.5-.5V18h3v11z"></path></svg><svg width="32" height="32" viewBox="0 0 32 32" id="product" y="704"><path fill="#5FFFBA" d="M8 8v17h18V8H8zm13 4H11s-1 0-1-1c0 0 0-1 1-1h10s1 0 1 1-1 1-1 1z"></path><path fill="#FFD561" d="M26 26s0 2-2 2H13s-2 0-2-2h15zM26 6H11s0-2 2-2h11s2 0 2 2z"></path><path fill="#2D2220" d="M21 9H11c-1.3 0-2 1.03-2 2 0 1.3 1.03 2 2 2h10c.97 0 2-.7 2-2s-1.03-2-2-2zm-10 3s-1 0-1-1c0 0 0-1 1-1h10s1 0 1 1-1 1-1 1H11z"></path><path fill="#FFD561" d="M22 11c0 1-1 1-1 1h-7c-.55 0-1-.45-1-1s.45-1 1-1h7s1 0 1 1z"></path><path fill="#2D2220" d="M26.5 17c.28 0 .5-.221.5-.5V6c0-2.2-1.79-3-3-3H8C5.8 3 5 4.79 5 6v20c0 2.2 1.79 3 3 3h16c2.2 0 3-1.79 3-3v-7.5c0-.28-.22-.5-.5-.5s-.5.22-.5.5V26s0 2-2 2H8s-2 0-2-2h16.5c.28 0 .5-.22.5-.5s-.22-.5-.5-.5H6V7h20v9.5c0 .279.22.5.5.5zM6 6s0-2 2-2h16s2 0 2 2H6z"></path><path fill="#2D2220" d="M19 14.5a.5.5 0 0 0-.5-.5h-9a.5.5 0 0 0 0 1h9a.5.5 0 0 0 .5-.5zM23 14.5a.5.5 0 0 0-.5-.5h-2a.5.5 0 0 0 0 1h2a.5.5 0 0 0 .5-.5z"></path></svg><svg width="32" height="32" viewBox="0 0 32 32" id="ruler" y="736"><path fill="#FFD561" d="M28 26L5 6v20h2v-2h1v2h2v-2h1v2h2v-2h1v2h2v-2h1v2h2v-2h1v2h2v-2h1v2h2v-1h1v1h2zM8.12 12.18c.17-.21.49-.24.7-.06l2.5 2.08c.21.18.24.49.07.7-.1.12-.25.18-.39.18a.48.48 0 0 1-.32-.11l-2.5-2.09a.493.493 0 0 1-.06-.7zM8 22v-6.22L15.35 22H8zm12.88.82a.49.49 0 0 1-.7.06l-6.77-5.64a.493.493 0 0 1-.06-.7c.17-.21.49-.24.7-.07l6.771 5.65c.209.17.239.49.059.7z"></path><path fill="#2D2220" d="M7 13.62V23h11.08L7 13.62zm1 2.16L15.35 22H8v-6.22z"></path><path fill="#2D2220" d="M28.64 25.23l-24-20a1.005 1.005 0 0 0-1.06-.14C3.23 5.26 3 5.61 3 6v20c0 .55.45 1 1 1h24c.42 0 .8-.26.94-.66.14-.39.02-.84-.3-1.11zM25 26v-1h-1v1h-2v-1h-1v1h-2v-1h-1v1h-2v-1h-1v1h-2v-1h-1v1h-2v-1H9v1H7v-1H6v1H4V6l24 20h-3z"></path></svg><svg width="32" height="32" viewBox="0 0 32 32" id="sunglasses" y="768"><path fill="#31CFFF" d="M27 17s-.01 5-4.5 5c-1.07 0-1.88-.28-2.5-.71-.08-.13-.458-.155-.438-.165L26.3 15.44c.021.01.04.02.061.04l.01.01c.27.23.51.57.59 1.07.029.129.039.28.039.44z"></path><path fill="#FFD561" d="M8 7.5c0 .28-.22.5-.5.5H7v.5c0 .28-.22.5-.5.5S6 8.78 6 8.5V8h-.5c-.28 0-.5-.22-.5-.5s.22-.5.5-.5H6v-.5c0-.28.22-.5.5-.5s.5.22.5.5V7h.5c.28 0 .5.22.5.5zM29 27.5c0 .279-.221.5-.5.5H28v.5c0 .279-.221.5-.5.5s-.5-.221-.5-.5V28h-.5c-.279 0-.5-.221-.5-.5s.221-.5.5-.5h.5v-.5c0-.279.221-.5.5-.5s.5.221.5.5v.5h.5c.279 0 .5.221.5.5z"></path><path fill="#5FFFBA" d="M30 6.5c0 .28-.221.5-.5.5H28v1.5c0 .28-.221.5-.5.5s-.5-.22-.5-.5V7h-1.5c-.279 0-.5-.22-.5-.5s.221-.5.5-.5H27V4.5c0-.28.221-.5.5-.5s.5.22.5.5V6h1.5c.279 0 .5.22.5.5zM10 27.5c0 .279-.22.5-.5.5H8v1.5c0 .279-.22.5-.5.5s-.5-.221-.5-.5V28H5.5c-.28 0-.5-.221-.5-.5s.22-.5.5-.5H7v-1.5c0-.279.22-.5.5-.5s.5.221.5.5V27h1.5c.28 0 .5.221.5.5z"></path><path fill="#2D2220" d="M7 6.5c0 .28-.22.5-.5.5H6v.5c0 .28-.22.5-.5.5S5 7.78 5 7.5V7h-.5c-.28 0-.5-.22-.5-.5s.22-.5.5-.5H5v-.5c0-.28.22-.5.5-.5s.5.22.5.5V6h.5c.28 0 .5.22.5.5zM28 26.5c0 .279-.221.5-.5.5H27v.5c0 .279-.221.5-.5.5s-.5-.221-.5-.5V27h-.5c-.279 0-.5-.221-.5-.5s.221-.5.5-.5h.5v-.5c0-.279.221-.5.5-.5s.5.221.5.5v.5h.5c.279 0 .5.221.5.5zM29 5.5c0 .28-.221.5-.5.5H27v1.5c0 .28-.221.5-.5.5s-.5-.22-.5-.5V6h-1.5c-.279 0-.5-.22-.5-.5s.221-.5.5-.5H26V3.5c0-.28.221-.5.5-.5s.5.22.5.5V5h1.5c.279 0 .5.22.5.5zM9 26.5c0 .279-.22.5-.5.5H7v1.5c0 .279-.22.5-.5.5s-.5-.221-.5-.5V27H4.5c-.28 0-.5-.221-.5-.5s.22-.5.5-.5H6v-1.5c0-.279.22-.5.5-.5s.5.221.5.5V26h1.5c.28 0 .5.221.5.5zM27.98 16.62s.01-.01 0-.02c-.021-.13-.04-.27-.07-.39v-.01l-.74-1.33-4.23-7.61a.548.548 0 0 0-.37-.26.512.512 0 0 0-.42.15l-2 2c-.2.19-.2.51 0 .7.189.2.51.2.699 0l1.53-1.53 3.19 5.74A2.892 2.892 0 0 0 25 14h-4.99c-1.08 0-1.75.44-2.12.81s-.59.81-.71 1.19h-2.33c-.44-1.45-1.84-2-2.85-2H7.01c-.2 0-.39.02-.57.05l3.18-5.73 1.53 1.53c.19.2.51.2.7 0 .2-.19.2-.51 0-.7l-2-2A.502.502 0 0 0 9.43 7c-.15.03-.29.12-.37.26L4.8 14.92l-.64 1.16c-.07.23-.11.43-.12.58-.03.18-.03.31-.03.34 0 .11.01 2.81 1.75 4.56.96.95 2.21 1.44 3.74 1.44 4.34 0 5.5-3.92 5.5-6h2.01c0 .11.01 2.81 1.75 4.56.96.95 2.21 1.44 3.74 1.44 4.34 0 5.5-3.92 5.5-6 0-.13-.01-.26-.02-.38zM5.36 18.97c-.35-1.03-.35-1.93-.35-1.97 0-.01 0-.21.06-.48l.01-.03c.08-.31.23-.71.56-1.01.3-.28.73-.48 1.37-.48h3.11l-4.76 3.97zM9.5 22c-2.01 0-3.12-.99-3.73-2.09.02 0 .03-.021.05-.03L11.68 15H12s2 0 2 2c0 0-.01 5-4.5 5zm8.86-3.03c-.35-1.03-.35-1.93-.35-1.97s.01-2 2-2h3.11l-4.76 3.97zM22.5 22c-2.01 0-3.12-.99-3.73-2.09.021 0 .03-.021.051-.03L24.68 15H25s.77 0 1.36.48l.01.01c.27.23.51.57.59 1.07.03.13.04.28.04.44 0 0-.01 5-4.5 5z"></path><path fill="#31CFFF" d="M23.12 15l-3.95 3.29c-.16-.72-.16-1.26-.16-1.29 0-.04.01-2 2-2h2.11zM10.12 15l-3.95 3.29c-.16-.72-.16-1.26-.16-1.29 0-.01 0-.21.06-.48l.01-.029c.08-.311.23-.71.56-1.01.3-.281.73-.481 1.37-.481h2.11zM14 17s-.01 5-4.5 5c-1.26 0-2.17-.39-2.82-.96.03-.04.08-.1.14-.16l6.31-5.55c.45.26.87.76.87 1.67z"></path></svg><svg width="32" height="32" viewBox="0 0 32 32" id="tablet" y="800"><path fill="#FFD561" d="M13 9h1v15h-1zM11 9h1v15h-1zM15 10h11v14H15z"></path><path fill="#2D2220" d="M28 7H5C3 7 3 9 3 9v15c0 2 2 2 2 2h3v-1H5.01C4.55 24.99 4 24.81 4 24V9.01C4.01 8.55 4.19 8 5 8h22.99c.46.01 1.01.2 1.01 1v14.99c-.01.46-.19 1.01-1 1.01H15v1h13c2 0 2-2 2-2V9c0-2-2-2-2-2z"></path><path fill="#2D2220" d="M23 9v1h2v13H6V10h15V9H5v15h21V9h-3zM27 14h1v5h-1z"></path><path fill="#FFD561" d="M28 15h1v5h-1z"></path><path fill="#2D2220" d="M9 25h1v1H9zM11 25h1v1h-1zM13 25h1v1h-1z"></path></svg><svg width="32" height="32" viewBox="0 0 32 32" id="thumbs_down" y="832"><path fill="#FF8164" d="M4.09 14.44c.18-.62.65-1.12 1.25-1.33a.536.536 0 0 1-.05-.11h4.33c.5 0 .5-1 0-1H6c-.42 0-.78-.24-.93-.61.16-.68.59-1.24 1.28-1.39h4.271c.5 0 .5-1 0-1h-4c-.021 0-.411.01-.561-.51v-.01c.39-.76 1.5-1.32 2.38-1.47.75-.13.9-.25 1.51-.37 1.49-.279 3.14-.529 5.2-.609.11-.011.23-.011.35-.011h.029c3.48.011 5.471 2 5.471 2v7.5s-.51 1.49-2.5 4.5c-2.439 3.681-2.5 1.01-4.81 7.33-.14.391-.4.74-.87.711-.391-.031-.71-.281-.79-.61.109-1.75.439-3.28 1-4.44.35-.74.69-1.439.88-2.189.08-.34.06-.561 0-.631a.217.217 0 0 0-.05-.039c.01-.021.01-.051.02-.07.28-1.13-.09-2.061-1.82-2.061H5c-.41 0-.76-.25-.91-.6.1-.36.31-.681.59-.921-.1-.09-.189-.18-.26-.29.16-.12.36-.21.58-.21h4.62c.5 0 .5-1 0-1H5c-.4 0-.75-.22-.91-.56z"></path><path fill="#DC4DFF" d="M23 17.5a.5.5 0 0 0 1 0v-8a.5.5 0 0 0-1 0v8z"></path><path fill="#2D2220" d="M4.68 16.5c-.42-.37-.68-.9-.68-1.49 0-.859.56-1.63 1.34-1.899A1.947 1.947 0 0 1 5 12c0-.97.47-1.8 1.38-1.99-.38 0-.51-.71-.43-1.18.16-.94 1.48-1.65 2.49-1.82.75-.13.9-.25 1.51-.37C11.75 6.3 13.79 6 16.5 6c3.87 0 6.109 2.19 6.21 2.29l.29.29v8.08l-.05.16c-.03.069-.63 1.619-2.62 4.729-2.67 4.181-2.359.931-4.67 7.05-.32.871-.94 1.44-1.78 1.44l-.12-.011c-1.01-.059-1.79-.869-1.76-1.84.05-2.06.39-3.859 1.03-5.18.35-.74.69-1.439.88-2.189.08-.34.06-.561 0-.631-.06-.068-.3-.188-.85-.188H9.5c-.28 0-.5-.221-.5-.5s.22-.5.5-.5h3.56c1.73 0 2.1.93 1.82 2.061-.57 2.279-1.81 4.41-1.88 7.16-.02.42.35.789.82.819.47.03.73-.319.87-.71C17 22.01 17.061 24.68 19.5 21c1.99-3.01 2.5-4.5 2.5-4.5V9s-2-2-5.5-2-4.9.5-7.9 1c-.54.09-1.6.44-1.6 1 0 .99.6 1 .62 1h2c.5 0 .5 1 0 1H7c-.55 0-1 .44-1 1 0 .55.45 1 1 1h1.62c.5 0 .5 1 0 1H6c-.55 0-1 .46-1 1.01s.45.99 1 .99h2.62c.5 0 .5 1 0 1H6c-.55 0-1 .439-1 1 0 .55.45 1 1 1h1.5c.28 0 .5.221.5.5s-.22.5-.5.5H6c-1.1 0-2-.9-2-2 0-.6.26-1.14.68-1.5z"></path><path fill="#2D2220" d="M9 19.5a.5.5 0 0 0 1 0 .5.5 0 0 0-1 0zM24 8.5a.5.5 0 0 1 1 0v4a.5.5 0 0 1-1 0v-4zM24 16.5a.5.5 0 0 0 1 0v-2a.5.5 0 0 0-1 0v2z"></path></svg><svg width="32" height="32" viewBox="0 0 32 32" id="thumbs_up" y="864"><path fill="#FFD561" d="M25.91 19.56c-.18.62-.65 1.12-1.25 1.33.02.03.04.08.05.11h-4.33c-.5 0-.5 1 0 1H24c.42 0 .78.24.93.61-.16.68-.59 1.239-1.279 1.39H19.38c-.5 0-.5 1 0 1h4c.021 0 .41-.01.561.51v.01c-.391.761-1.5 1.32-2.381 1.471-.75.13-.899.25-1.51.37-1.49.279-3.14.529-5.2.609-.11.011-.23.011-.35.011h-.03c-3.48-.011-5.47-2-5.47-2v-7.5s.51-1.49 2.5-4.5c2.44-3.68 2.5-1.01 4.81-7.33.14-.39.4-.74.87-.71.391.03.71.28.79.61-.109 1.75-.439 3.28-1 4.44-.35.74-.69 1.44-.88 2.19-.08.34-.06.56 0 .63.01.01.03.03.05.04-.01.02-.01.05-.02.07-.28 1.13.09 2.06 1.82 2.06H25c.41 0 .76.25.91.6-.101.36-.311.68-.59.92.1.09.189.18.26.29A.982.982 0 0 1 25 18h-4.62c-.5 0-.5 1 0 1H25c.4 0 .75.22.91.56z"></path><path fill="#5FFFBA" d="M7 18.5a.5.5 0 0 0-1 0v8a.5.5 0 0 0 1 0v-8z"></path><path fill="#2D2220" d="M25.32 17.5c.42.37.68.9.68 1.49 0 .859-.56 1.63-1.34 1.899.22.321.34.701.34 1.111 0 .97-.47 1.8-1.38 1.99.38 0 .51.71.43 1.18-.16.94-1.479 1.65-2.49 1.82-.75.13-.899.25-1.51.37-1.8.34-3.84.64-6.55.64-3.87 0-6.11-2.19-6.21-2.29L7 25.42v-8.08l.05-.16c.03-.069.63-1.62 2.62-4.729 2.67-4.18 2.36-.93 4.67-7.05.32-.87.94-1.44 1.78-1.44l.12.01c1.01.06 1.79.87 1.76 1.84-.05 2.06-.39 3.86-1.03 5.18-.35.74-.69 1.44-.88 2.19-.08.34-.06.56 0 .63s.3.189.85.189h3.56c.28 0 .5.22.5.5s-.22.5-.5.5h-3.56c-1.73 0-2.1-.93-1.82-2.06.57-2.28 1.81-4.41 1.88-7.16.02-.42-.35-.79-.82-.82-.47-.03-.73.32-.87.71C13 11.99 12.94 9.32 10.5 13 8.51 16.01 8 17.5 8 17.5V25s2 2 5.5 2 4.9-.5 7.9-1c.54-.09 1.6-.44 1.6-1 0-.99-.6-1-.62-1h-2c-.5 0-.5-1 0-1H23c.55 0 1-.44 1-1 0-.55-.45-1-1-1h-1.62c-.5 0-.5-1 0-1H24c.55 0 1-.46 1-1.01s-.45-.99-1-.99h-2.62c-.5 0-.5-1 0-1H24c.55 0 1-.44 1-1 0-.55-.45-1-1-1h-1.5c-.28 0-.5-.22-.5-.5s.22-.5.5-.5H24c1.1 0 2 .9 2 2 0 .6-.26 1.14-.68 1.5z"></path><path fill="#2D2220" d="M21 14.5a.5.5 0 0 0-1 0 .5.5 0 0 0 1 0zM6 21.5a.5.5 0 0 1-1 0v-4a.5.5 0 0 1 1 0v4zM6 23.5a.5.5 0 0 0-1 0v2a.5.5 0 0 0 1 0v-2z"></path></svg><svg width="32" height="32" viewBox="0 0 32 32" id="watermark" y="896"><path fill="#2D2220" d="M16 5.65c1.97 2.65 7 9.84 7 14.35 0 4.97-2.03 7-7 7-4.97 0-7-2.03-7-7 0-4.51 5.03-11.7 7-14.35m0-1a1 1 0 0 0-.803.403C12.509 8.668 8 15.418 8 20c0 5.532 2.467 8 8 8 5.532 0 8-2.468 8-8 0-4.58-4.51-11.331-7.197-14.947A1 1 0 0 0 16 4.65z"></path><path fill="#31CFFF" d="M23 20c0 4.97-2.03 7-7 7-1.75 0-3.13-.25-4.19-.81-.56-1.06-.81-2.44-.81-4.19 0-4.3 4.57-11.04 6.71-13.95C19.98 11.4 23 16.5 23 20z"></path><path fill="#2D2220" d="M13.5 25a.516.516 0 0 1-.158-.025C12.186 24.589 10 23.158 10 20.5a.5.5 0 0 1 1 0c0 2.594 2.551 3.489 2.659 3.526A.5.5 0 0 1 13.5 25zM10.5 18.999h-.002A.5.5 0 0 1 10 18.5c0-.088.024-2.187 2.084-5.277a.5.5 0 0 1 .832.554C11.042 16.589 11 18.483 11 18.503a.502.502 0 0 1-.5.496zM17 24.5a.5.5 0 0 0-.5-.5h-1a.5.5 0 0 0 0 1h1a.5.5 0 0 0 .5-.5z"></path></svg><svg width="32" height="32" viewBox="0 0 32 32" id="zoom" y="928"><path fill="#2D2220" d="M23.31 22.55c1.7-1.859 2.74-4.33 2.74-7.05 0-5.64-4.46-10.24-10.05-10.49v1c5.04.25 9.06 4.4 9.06 9.49 0 5.24-4.27 9.5-9.53 9.5-5.09 0-9.25-3.99-9.51-9h-1c.26 5.56 4.87 9.99 10.51 9.99 2.72 0 5.201-1.04 7.07-2.73l5.631 5.61.71-.7-5.631-5.62zM15 6.01v-1c-5.4.27-9.72 4.6-9.98 9.99h1c.25-4.84 4.13-8.72 8.98-8.99z"></path><path fill="#2D2220" d="M16 7.01v1.01c3.92.24 7.05 3.5 7.05 7.48 0 4.14-3.38 7.5-7.52 7.5-3.98 0-7.25-3.09-7.49-7H7.02c.26 4.47 3.97 8 8.51 8 4.71 0 8.52-3.8 8.52-8.5 0-4.53-3.56-8.24-8.05-8.49zm-1 1.02V7.02c-4.3.26-7.73 3.7-7.98 7.98h1.02c.23-3.73 3.22-6.72 6.96-6.97z"></path><path fill="#31CFFF" d="M23.05 15.5c0 3.45-2.34 6.35-5.52 7.22-3.18-.87-5.521-3.77-5.521-7.22s2.34-6.35 5.521-7.22c3.18.87 5.52 3.77 5.52 7.22z"></path><path fill="#5FFFBA" d="M15.5 6C10.25 6 6 10.25 6 15.5s4.25 9.5 9.5 9.5 9.5-4.25 9.5-9.5S20.75 6 15.5 6zm0 18C10.81 24 7 20.19 7 15.5 7 10.81 10.81 7 15.5 7c4.69 0 8.5 3.81 8.5 8.5 0 4.69-3.81 8.5-8.5 8.5z"></path><path fill="none" stroke="#2D2220" stroke-linecap="round" stroke-miterlimit="10" d="M13.5 14.5l5-4M16.5 14.5l5-4"></path></svg></svg>